{"accessors" : [{"bufferView" : 0, "byteOffset" : 0, "componentType" : 5123, "count" : 1236, "type" : "SCALAR", "max" : [998], "min" : [0]}, {"bufferView" : 1, "byteOffset" : 0, "componentType" : 5126, "count" : 999, "type" : "VEC3", "max" : [5.727337837219238, -10.080022811889648, 165.50238037109375], "min" : [-5.7418904304504395, -12.323542594909668, 160.9906768798828], "name" : "POSITION"}, {"bufferView" : 1, "byteOffset" : 12, "componentType" : 5126, "count" : 999, "type" : "VEC3", "max" : [0.930101752281189, 1.0000044107437134, 0.945511519908905], "min" : [-0.9386152029037476, -1.0000042915344238, -0.9373881220817566], "name" : "NORMAL"}, {"bufferView" : 1, "byteOffset" : 24, "componentType" : 5126, "count" : 999, "type" : "VEC3", "max" : [1, 1, 1], "min" : [1, 1, 1], "name" : "COLOR_0"}, {"bufferView" : 1, "byteOffset" : 36, "componentType" : 5126, "count" : 999, "type" : "VEC2", "max" : [0.9646214246749878, 0.9818061590194702], "min" : [0.006885886192321777, 0.020990610122680664], "name" : "TEXCOORD_0"}, {"bufferView" : 0, "byteOffset" : 2472, "componentType" : 5123, "count" : 12282, "type" : "SCALAR", "max" : [9696], "min" : [0]}, {"bufferView" : 2, "byteOffset" : 0, "componentType" : 5126, "count" : 9697, "type" : "VEC3", "max" : [9.315945625305176, 5.527227878570557, 174.30978393554688], "min" : [-9.315431594848633, -15.35927963256836, 143.21604919433594], "name" : "POSITION"}, {"bufferView" : 2, "byteOffset" : 12, "componentType" : 5126, "count" : 9697, "type" : "VEC3", "max" : [0.9991341829299927, 0.9998885989189148, 0.9998037815093994], "min" : [-0.9991319179534912, -0.9999443292617798, -0.9998796582221985], "name" : "NORMAL"}, {"bufferView" : 2, "byteOffset" : 24, "componentType" : 5126, "count" : 9697, "type" : "VEC3", "max" : [1, 1, 1], "min" : [1, 1, 1], "name" : "COLOR_0"}, {"bufferView" : 2, "byteOffset" : 36, "componentType" : 5126, "count" : 9697, "type" : "VEC2", "max" : [0.9943000078201294, 0.9807000160217285], "min" : [0.004999999888241291, 0.004350006580352783], "name" : "TEXCOORD_0"}, {"bufferView" : 0, "byteOffset" : 27036, "componentType" : 5123, "count" : 300, "type" : "SCALAR", "max" : [240], "min" : [0]}, {"bufferView" : 3, "byteOffset" : 0, "componentType" : 5126, "count" : 241, "type" : "VEC3", "max" : [2.6688826084136963, -6.5990424156188965, 158.654541015625], "min" : [-2.6688826084136963, -12.972624778747559, 155.2946319580078], "name" : "POSITION"}, {"bufferView" : 3, "byteOffset" : 12, "componentType" : 5126, "count" : 241, "type" : "VEC3", "max" : [0.9776878952980042, 0.1938484162092209, 0.9688730835914612], "min" : [-0.9985034465789795, -0.9419431686401367, -0.9988976120948792], "name" : "NORMAL"}, {"bufferView" : 3, "byteOffset" : 24, "componentType" : 5126, "count" : 241, "type" : "VEC3", "max" : [1, 1, 1], "min" : [1, 1, 1], "name" : "COLOR_0"}, {"bufferView" : 3, "byteOffset" : 36, "componentType" : 5126, "count" : 241, "type" : "VEC2", "max" : [0.9808249473571777, 0.983213484287262], "min" : [0.051069796085357666, 0.02829587459564209], "name" : "TEXCOORD_0"}, {"bufferView" : 0, "byteOffset" : 27636, "componentType" : 5123, "count" : 5604, "type" : "SCALAR", "max" : [4427], "min" : [0]}, {"bufferView" : 4, "byteOffset" : 0, "componentType" : 5126, "count" : 4428, "type" : "VEC3", "max" : [8.594209671020508, 7.440013408660889, 176.73020935058594], "min" : [-8.964315414428711, -15.245275497436523, 163.76231384277344], "name" : "POSITION"}, {"bufferView" : 4, "byteOffset" : 12, "componentType" : 5126, "count" : 4428, "type" : "VEC3", "max" : [0.9990803003311157, 0.9986491799354553, 0.9989578723907471], "min" : [-0.9999024271965027, -0.991345226764679, -0.9993069767951965], "name" : "NORMAL"}, {"bufferView" : 4, "byteOffset" : 24, "componentType" : 5126, "count" : 4428, "type" : "VEC3", "max" : [1, 1, 1], "min" : [1, 1, 1], "name" : "COLOR_0"}, {"bufferView" : 4, "byteOffset" : 36, "componentType" : 5126, "count" : 4428, "type" : "VEC2", "max" : [0.9829923510551453, 0.9841352105140686], "min" : [0.007772855460643768, 0.005392849445343018], "name" : "TEXCOORD_0"}, {"bufferView" : 0, "byteOffset" : 38844, "componentType" : 5123, "count" : 13764, "type" : "SCALAR", "max" : [10973], "min" : [0]}, {"bufferView" : 5, "byteOffset" : 0, "componentType" : 5126, "count" : 10974, "type" : "VEC3", "max" : [45.958160400390625, 13.193646430969238, 151.587158203125], "min" : [-45.93223571777344, -20.8624324798584, 97.18232727050781], "name" : "POSITION"}, {"bufferView" : 5, "byteOffset" : 12, "componentType" : 5126, "count" : 10974, "type" : "VEC3", "max" : [0.9993122220039368, 0.9999920129776001, 0.98455810546875], "min" : [-0.9994174242019653, -0.9996497631072998, -0.9999075531959534], "name" : "NORMAL"}, {"bufferView" : 5, "byteOffset" : 24, "componentType" : 5126, "count" : 10974, "type" : "VEC3", "max" : [1, 1, 1], "min" : [1, 1, 1], "name" : "COLOR_0"}, {"bufferView" : 5, "byteOffset" : 36, "componentType" : 5126, "count" : 10974, "type" : "VEC2", "max" : [0.9817485809326172, 0.9694631099700928], "min" : [0.01386067271232605, 0.008994519710540771], "name" : "TEXCOORD_0"}, {"bufferView" : 0, "byteOffset" : 66372, "componentType" : 5123, "count" : 10653, "type" : "SCALAR", "max" : [8436], "min" : [0]}, {"bufferView" : 6, "byteOffset" : 0, "componentType" : 5126, "count" : 8437, "type" : "VEC3", "max" : [25.313446044921875, 14.260842323303223, 109.13703155517578], "min" : [-25.33222770690918, -16.71282386779785, 13.051639556884766], "name" : "POSITION"}, {"bufferView" : 6, "byteOffset" : 12, "componentType" : 5126, "count" : 8437, "type" : "VEC3", "max" : [0.9999787211418152, 0.9999876022338867, 0.9999462962150574], "min" : [-0.9999868273735046, -0.9999551177024841, -0.999143660068512], "name" : "NORMAL"}, {"bufferView" : 6, "byteOffset" : 24, "componentType" : 5126, "count" : 8437, "type" : "VEC3", "max" : [1, 1, 1], "min" : [1, 1, 1], "name" : "COLOR_0"}, {"bufferView" : 6, "byteOffset" : 36, "componentType" : 5126, "count" : 8437, "type" : "VEC2", "max" : [0.9921875, 0.9921875], "min" : [0.0078125, 0.17843246459960938], "name" : "TEXCOORD_0"}, {"bufferView" : 0, "byteOffset" : 87680, "componentType" : 5123, "count" : 3966, "type" : "SCALAR", "max" : [3131], "min" : [0]}, {"bufferView" : 7, "byteOffset" : 0, "componentType" : 5126, "count" : 3132, "type" : "VEC3", "max" : [22.99602508544922, 10.718513488769531, 16.955951690673828], "min" : [-23.002456665039062, -19.18853187561035, -0.06100144237279892], "name" : "POSITION"}, {"bufferView" : 7, "byteOffset" : 12, "componentType" : 5126, "count" : 3132, "type" : "VEC3", "max" : [0.9996703267097473, 0.9995288848876953, 0.9949047565460205], "min" : [-0.9996345639228821, -0.9807310700416565, -0.999999463558197], "name" : "NORMAL"}, {"bufferView" : 7, "byteOffset" : 24, "componentType" : 5126, "count" : 3132, "type" : "VEC3", "max" : [1, 1, 1], "min" : [1, 1, 1], "name" : "COLOR_0"}, {"bufferView" : 7, "byteOffset" : 36, "componentType" : 5126, "count" : 3132, "type" : "VEC2", "max" : [0.9009810090065002, 0.985023021697998], "min" : [0.009003999643027782, 0.016766011714935303], "name" : "TEXCOORD_0"}, {"bufferView" : 0, "byteOffset" : 95612, "componentType" : 5123, "count" : 17448, "type" : "SCALAR", "max" : [13915], "min" : [0]}, {"bufferView" : 8, "byteOffset" : 0, "componentType" : 5126, "count" : 13916, "type" : "VEC3", "max" : [46.41608428955078, 7.725234508514404, 132.71072387695312], "min" : [-46.41570281982422, -17.6859130859375, 8.372210502624512], "name" : "POSITION"}, {"bufferView" : 8, "byteOffset" : 12, "componentType" : 5126, "count" : 13916, "type" : "VEC3", "max" : [0.9983900189399719, 0.9996235966682434, 0.8421165347099304], "min" : [-0.9992390275001526, -0.9985805153846741, -0.9982412457466125], "name" : "NORMAL"}, {"bufferView" : 8, "byteOffset" : 24, "componentType" : 5126, "count" : 13916, "type" : "VEC3", "max" : [1, 1, 1], "min" : [1, 1, 1], "name" : "COLOR_0"}, {"bufferView" : 8, "byteOffset" : 36, "componentType" : 5126, "count" : 13916, "type" : "VEC2", "max" : [0.9905531406402588, 0.9527736306190491], "min" : [0.009567409753799438, 0.12644481658935547], "name" : "TEXCOORD_0"}], "asset" : {"generator" : "Aspose.3D 24.1.0", "version" : "2.0"}, "buffers" : [{"uri" : "data:application/octet-stream;base64,", "byteLength" : 3001676}], "bufferViews" : [{"buffer" : 0, "byteOffset" : 0, "byteLength" : 130508, "target" : 34963}, {"buffer" : 0, "byteOffset" : 130512, "byteLength" : 54384, "byteStride" : 44, "target" : 34962}, {"buffer" : 0, "byteOffset" : 184900, "byteLength" : 540408, "byteStride" : 44, "target" : 34962}, {"buffer" : 0, "byteOffset" : 725312, "byteLength" : 13200, "byteStride" : 44, "target" : 34962}, {"buffer" : 0, "byteOffset" : 738516, "byteLength" : 246576, "byteStride" : 44, "target" : 34962}, {"buffer" : 0, "byteOffset" : 985096, "byteLength" : 605616, "byteStride" : 44, "target" : 34962}, {"buffer" : 0, "byteOffset" : 1590716, "byteLength" : 468732, "byteStride" : 44, "target" : 34962}, {"buffer" : 0, "byteOffset" : 2059452, "byteLength" : 174504, "byteStride" : 44, "target" : 34962}, {"buffer" : 0, "byteOffset" : 2233960, "byteLength" : 767712, "byteStride" : 44, "target" : 34962}], "materials" : [{"name" : "Wolf3D_Eye", "pbrMetallicRoughness" : {"baseColorFactor" : [0.2158605009317398, 0.2158605009317398, 0.2158605009317398, 1], "metallicFactor" : 1, "roughnessFactor" : 1}, "emissiveFactor" : [0, 0, 0], "alphaMode" : "OPAQUE", "doubleSided" : false}, {"name" : "Wolf3D_Skin", "pbrMetallicRoughness" : {"baseColorFactor" : [0.2158605009317398, 0.2158605009317398, 0.2158605009317398, 1], "metallicFactor" : 1, "roughnessFactor" : 1}, "emissiveFactor" : [0, 0, 0], "alphaMode" : "OPAQUE", "doubleSided" : false}, {"name" : "Wolf3D_Teeth1", "pbrMetallicRoughness" : {"baseColorFactor" : [0.2158605009317398, 0.2158605009317398, 0.2158605009317398, 1], "metallicFactor" : 1, "roughnessFactor" : 1}, "emissiveFactor" : [0, 0, 0], "alphaMode" : "OPAQUE", "doubleSided" : false}, {"name" : "Wolf3D_Hair", "pbrMetallicRoughness" : {"baseColorFactor" : [0.2158605009317398, 0.2158605009317398, 0.2158605009317398, 1], "metallicFactor" : 1, "roughnessFactor" : 1}, "emissiveFactor" : [0, 0, 0], "alphaMode" : "OPAQUE", "doubleSided" : false}, {"name" : "Wolf3D_Outfit_Top", "pbrMetallicRoughness" : {"baseColorFactor" : [0.2158605009317398, 0.2158605009317398, 0.2158605009317398, 1], "metallicFactor" : 1, "roughnessFactor" : 1}, "emissiveFactor" : [0, 0, 0], "alphaMode" : "OPAQUE", "doubleSided" : false}, {"name" : "Wolf3D_Outfit_Bottom", "pbrMetallicRoughness" : {"baseColorFactor" : [0.2158605009317398, 0.2158605009317398, 0.2158605009317398, 1], "metallicFactor" : 1, "roughnessFactor" : 1}, "emissiveFactor" : [0, 0, 0], "alphaMode" : "OPAQUE", "doubleSided" : false}, {"name" : "Wolf3D_Outfit_Footwear", "pbrMetallicRoughness" : {"baseColorFactor" : [0.2158605009317398, 0.2158605009317398, 0.2158605009317398, 1], "metallicFactor" : 1, "roughnessFactor" : 1}, "emissiveFactor" : [0, 0, 0], "alphaMode" : "OPAQUE", "doubleSided" : false}, {"name" : "Wolf3D_Body", "pbrMetallicRoughness" : {"baseColorFactor" : [0.2158605009317398, 0.2158605009317398, 0.2158605009317398, 1], "metallicFactor" : 1, "roughnessFactor" : 1}, "emissiveFactor" : [0, 0, 0], "alphaMode" : "OPAQUE", "doubleSided" : false}], "meshes" : [{"primitives" : [{"attributes" : {"POSITION" : 1, "NORMAL" : 2, "COLOR_0" : 3, "TEXCOORD_0" : 4}, "indices" : 0, "material" : 0, "mode" : 4}, {"attributes" : {"POSITION" : 6, "NORMAL" : 7, "COLOR_0" : 8, "TEXCOORD_0" : 9}, "indices" : 5, "material" : 1, "mode" : 4}, {"attributes" : {"POSITION" : 11, "NORMAL" : 12, "COLOR_0" : 13, "TEXCOORD_0" : 14}, "indices" : 10, "material" : 2, "mode" : 4}, {"attributes" : {"POSITION" : 16, "NORMAL" : 17, "COLOR_0" : 18, "TEXCOORD_0" : 19}, "indices" : 15, "material" : 3, "mode" : 4}, {"attributes" : {"POSITION" : 21, "NORMAL" : 22, "COLOR_0" : 23, "TEXCOORD_0" : 24}, "indices" : 20, "material" : 4, "mode" : 4}, {"attributes" : {"POSITION" : 26, "NORMAL" : 27, "COLOR_0" : 28, "TEXCOORD_0" : 29}, "indices" : 25, "material" : 5, "mode" : 4}, {"attributes" : {"POSITION" : 31, "NORMAL" : 32, "COLOR_0" : 33, "TEXCOORD_0" : 34}, "indices" : 30, "material" : 6, "mode" : 4}, {"attributes" : {"POSITION" : 36, "NORMAL" : 37, "COLOR_0" : 38, "TEXCOORD_0" : 39}, "indices" : 35, "material" : 7, "mode" : 4}], "name" : "newNeutral"}], "nodes" : [{"mesh" : 0, "name" : "newNeutral"}, {"children" : [0], "name" : "newNeutral"}], "scene" : 0, "scenes" : [{"nodes" : [1]}]}